#!OML:ASF F:\VICON\USERDATA\INSTALL\rory3\rory3.ASF
:FULLY-SPECIFIED
:DEGREES
292
root 8.53264 17.7098 8.37499 -176.646 -39.0498 177.537
lowerback 11.033 1.48931 -3.43465
upperback 0.353768 1.52882 0.501358
thorax -5.9299 0.833124 2.22033
lowerneck -21.9739 -2.14123 -10.8306
upperneck 30.2885 -2.25965 7.0854
head 14.2671 -1.54722 4.26356
rclavicle 2.93207e-015 8.54774e-015
rhumerus -35.8129 -20.1885 -76.2846
rradius 34.0806
rwrist 8.915
rhand -13.0911 9.25177
rfingers 7.12502
rthumb 13.0054 -20.3228
lclavicle 2.93207e-015 8.54774e-015
lhumerus -29.8948 9.55113 74.831
lradius 39.0907
lwrist -0.448751
lhand -25.0795 25.9672
lfingers 7.12502
lthumb 1.43476 55.9421
rfemur -12.6226 -7.48741 21.8354
rtibia 44.0124
rfoot -24.7023 10.5945
rtoes -12.0166
lfemur -5.88484 -3.00815 -19.7078
ltibia 25.7984
lfoot -16.2196 3.95221
ltoes -13.2747
293
root 8.50132 17.7067 8.39541 -176.519 -38.5178 177.452
lowerback 10.9483 1.5103 -3.57215
upperback 0.269856 1.54251 0.468268
thorax -5.97486 0.846467 2.26134
lowerneck -22.1164 -2.15628 -11.0601
upperneck 30.4623 -2.23872 7.21255
head 14.3775 -1.55593 4.36803
rclavicle 5.62312e-014 -2.98177e-015
rhumerus -35.7414 -19.759 -76.5046
rradius 33.7595
rwrist 8.60585
rhand -14.1221 10.2351
rfingers 7.12502
rthumb 12.0113 -19.4003
lclavicle 5.62312e-014 -2.98177e-015
lhumerus -30.031 9.82793 74.6725
lradius 38.9582
lwrist -0.568165
lhand -25.0566 25.8684
lfingers 7.12502
lthumb 1.45688 55.8432
rfemur -12.6124 -7.96519 22.4357
rtibia 43.6031
rfoot -23.387 9.59423
rtoes -6.19135
lfemur -5.89825 -2.96416 -19.9568
ltibia 25.888
lfoot -16.387 4.14219
ltoes -11.9055
294
root 8.46636 17.7037 8.41263 -176.462 -38.0076 177.419
lowerback 10.8208 1.55452 -3.575
upperback 0.189293 1.60218 0.377138
thorax -5.98974 0.877167 2.15872
lowerneck -22.0749 -2.16886 -11.0792
upperneck 30.5442 -2.28215 7.23736
head 14.4105 -1.58167 4.37566
rclavicle -1.55002e-013 2.26615e-014
rhumerus -35.7171 -19.5257 -76.706
rradius 33.3582
rwrist 8.31191
rhand -14.5485 10.7247
rfingers 7.12502
rthumb 11.6002 -18.9342
lclavicle -1.55002e-013 2.26615e-014
lhumerus -30.1542 9.84531 74.5222
lradius 38.8153
lwrist -0.811546
lhand -24.8851 25.6295
lfingers 7.12502
lthumb 1.62251 55.603
rfemur -12.4788 -8.24481 22.9942
rtibia 43.1003
rfoot -21.8587 7.42522
rtoes 3.80798
lfemur -5.88817 -2.62255 -20.1477
ltibia 25.9955
lfoot -16.5014 4.2199
ltoes -12.2741
295
root 8.4317 17.7013 8.43102 -176.373 -37.5253 177.315
lowerback 10.7243 1.60347 -3.5243
upperback 0.120917 1.66746 0.205324
thorax -6.00511 0.907022 1.93999
lowerneck -21.9679 -2.17133 -10.9206
upperneck 30.5461 -2.35903 7.19829
head 14.3938 -1.60636 4.31571
rclavicle 2.76062e-014 2.38542e-015
rhumerus -35.7191 -19.4959 -76.9426
rradius 33.1324
rwrist 7.94366
rhand -14.5001 10.6021
rfingers 7.12502
rthumb 11.6468 -19.0542
lclavicle 2.76062e-014 2.38542e-015
lhumerus -30.2045 9.51369 74.392
lradius 38.6711
lwrist -0.785734
lhand -25.0976 25.9049
lfingers 7.12502
lthumb 1.41731 55.8799
rfemur -12.3054 -8.31846 23.4094
rtibia 42.502
rfoot -21.171 4.18168
rtoes 8.89558
lfemur -5.93229 -2.25014 -20.3885
ltibia 26.1697
lfoot -16.6399 4.23354
ltoes -12.4034
296
root 8.39796 17.6918 8.45177 -176.43 -36.968 177.427
lowerback 10.6887 1.65247 -3.33274
upperback 0.0409735 1.75512 0.143001
thorax -6.06673 0.946371 1.75208
lowerneck -21.9355 -2.17401 -10.8458
upperneck 30.613 -2.36426 7.06457
head 14.4144 -1.62496 4.24689
rclavicle 4.55465e-014 -7.7526e-015
rhumerus -35.6928 -19.4162 -77.0625
rradius 32.8976
rwrist 7.5727
rhand -14.424 10.4242
rfingers 7.12502
rthumb 11.7202 -19.2279
lclavicle 4.55465e-014 -7.7526e-015
lhumerus -30.3922 9.2136 74.3503
lradius 38.675
lwrist -0.588317
lhand -24.9558 26.2309
lfingers 7.12502
lthumb 1.55427 56.205
rfemur -12.0868 -8.18365 23.9046
rtibia 41.8256
rfoot -21.5406 0.593652
rtoes 6.88544
lfemur -6.00797 -1.95014 -20.4481
ltibia 26.4482
lfoot -17.0375 4.12743
ltoes -9.82991
297
root 8.36341 17.6771 8.47304 -176.413 -36.4127 177.448
lowerback 10.5883 1.67414 -3.20414
upperback -0.00702688 1.80105 0.0847062
thorax -6.05727 0.965428 1.61267
lowerneck -21.9012 -2.18024 -10.9093
upperneck 30.5791 -2.33536 7.01513
head 14.3892 -1.62731 4.24052
rclavicle 1.18028e-014 -5.1684e-015
rhumerus -35.7242 -19.4219 -77.1135
rradius 32.887
rwrist 7.35392
rhand -14.2323 10.1981
rfingers 7.12502
rthumb 11.9051 -19.4434
lclavicle 1.18028e-014 -5.1684e-015
lhumerus -30.5975 8.94299 74.322
lradius 38.6987
lwrist -0.38862
lhand -24.8763 26.0922
lfingers 7.12502
lthumb 1.63102 56.0657
rfemur -11.8804 -7.94095 24.1921
rtibia 41.1323
rfoot -22.2875 -2.37879
rtoes 3.11102
lfemur -6.11986 -1.65035 -20.5761
ltibia 26.7866
lfoot -17.4209 3.93047
ltoes -7.15551
298
root 8.32855 17.6614 8.49152 -176.327 -35.9509 177.221
lowerback 10.5111 1.67447 -3.21098
upperback 0.0230892 1.79524 -0.0317251
thorax -5.97799 0.958987 1.49769
lowerneck -22.0265 -2.20873 -11.0439
upperneck 30.6251 -2.31955 7.03907
head 14.4382 -1.6334 4.27968
rclavicle 1.33434e-014 -7.15625e-015
rhumerus -35.9909 -19.7301 -77.0368
rradius 33.797
rwrist 6.46822
rhand -12.495 8.98721
rfingers 7.12502
rthumb 13.5799 -20.5499
lclavicle 1.33434e-014 -7.15625e-015
lhumerus -30.5987 8.81998 74.2977
lradius 38.5399
lwrist -0.606801
lhand -24.4022 25.4287
lfingers 7.12502
lthumb 2.08889 55.3982
rfemur -11.5451 -7.70621 24.1201
rtibia 40.4594
rfoot -22.8835 -3.78217
rtoes 3.07964
lfemur -6.18434 -1.22576 -20.8903
ltibia 27.1982
lfoot -17.711 3.66893
ltoes -6.27397
299
root 8.29005 17.6497 8.51359 -176.385 -35.457 177.149
lowerback 10.5296 1.68567 -2.97427
upperback 0.0503784 1.83083 -0.135657
thorax -5.94999 0.96661 1.25005
lowerneck -22.2041 -2.2414 -11.2209
upperneck 30.741 -2.32562 7.154
head 14.5341 -1.64436 4.36377
rclavicle 2.38542e-015 6.55989e-015
rhumerus -36.1989 -19.8046 -77.0469
rradius 34.2331
rwrist 6.27787
rhand -12.1123 8.74769
rfingers 7.12502
rthumb 13.9488 -20.7644
lclavicle 2.38542e-015 6.55989e-015
lhumerus -30.5273 8.7868 74.2865
lradius 38.2909
lwrist -0.995866
lhand -23.6512 24.5024
lfingers 7.12502
lthumb 2.81424 54.4635
rfemur -11.1065 -7.35078 24.0264
rtibia 39.8461
rfoot -23.1333 -3.82102
rtoes 6.03142
lfemur -6.2338 -0.714938 -21.0872
ltibia 27.6584
lfoot -18.0814 3.41764
ltoes -6.47834
300
root 8.25399 17.6378 8.54345 -176.542 -34.8623 177.281
lowerback 10.6195 1.7252 -2.54831
upperback 0.0145967 1.92747 -0.220045
thorax -6.0249 1.00141 0.903849
lowerneck -22.1483 -2.23046 -11.2628
upperneck 30.6901 -2.30828 7.18082
head 14.4978 -1.63801 4.38276
rclavicle 1.48641e-013 -4.77083e-015
rhumerus -36.2065 -19.7164 -77.1496
rradius 34.0968
rwrist 6.19301
rhand -12.3512 8.81744
rfingers 7.12502
rthumb 13.7186 -20.7104
lclavicle 1.48641e-013 -4.77083e-015
lhumerus -30.5974 8.73037 74.2523
lradius 38.1529
lwrist -1.34125
lhand -23.1704 23.863
lfingers 7.12502
lthumb 3.2785 53.8175
rfemur -10.6694 -6.74239 24.0093
rtibia 39.2799
rfoot -23.3293 -3.70158
rtoes 7.01646
lfemur -6.35383 -0.41656 -21.1366
ltibia 28.2022
lfoot -18.4882 3.38904
ltoes -6.54646
